<svg xmlns:xlink="http://www.w3.org/1999/xlink" width="4.159ex" height="7.343ex" style="font-size: 15px; vertical-align: -3.005ex;" viewBox="0 -1867.7 1790.7 3161.4" role="img" focusable="false" xmlns="http://www.w3.org/2000/svg">
<defs>
<path stroke-width="1" id="E1-MJSZ2-220F" d="M220 812Q220 813 218 819T214 829T208 840T199 853T185 866T166 878T140 887T107 893T66 896H56V950H1221V896H1211Q1080 896 1058 812V-311Q1076 -396 1211 -396H1221V-450H725V-396H735Q864 -396 888 -314Q889 -312 889 -311V896H388V292L389 -311Q405 -396 542 -396H552V-450H56V-396H66Q195 -396 219 -314Q220 -312 220 -311V812Z"></path>
<path stroke-width="1" id="E1-MJMATHI-69" d="M184 600Q184 624 203 642T247 661Q265 661 277 649T290 619Q290 596 270 577T226 557Q211 557 198 567T184 600ZM21 287Q21 295 30 318T54 369T98 420T158 442Q197 442 223 419T250 357Q250 340 236 301T196 196T154 83Q149 61 149 51Q149 26 166 26Q175 26 185 29T208 43T235 78T260 137Q263 149 265 151T282 153Q302 153 302 143Q302 135 293 112T268 61T223 11T161 -11Q129 -11 102 10T74 74Q74 91 79 106T122 220Q160 321 166 341T173 380Q173 404 156 404H154Q124 404 99 371T61 287Q60 286 59 284T58 281T56 279T53 278T49 278T41 278H27Q21 284 21 287Z"></path>
<path stroke-width="1" id="E1-MJMAIN-31" d="M213 578L200 573Q186 568 160 563T102 556H83V602H102Q149 604 189 617T245 641T273 663Q275 666 285 666Q294 666 302 660V361L303 61Q310 54 315 52T339 48T401 46H427V0H416Q395 3 257 3Q121 3 100 0H88V46H114Q136 46 152 46T177 47T193 50T201 52T207 57T213 61V578Z"></path>
<path stroke-width="1" id="E1-MJMAIN-30" d="M96 585Q152 666 249 666Q297 666 345 640T423 548Q460 465 460 320Q460 165 417 83Q397 41 362 16T301 -15T250 -22Q224 -22 198 -16T137 16T82 83Q39 165 39 320Q39 494 96 585ZM321 597Q291 629 250 629Q208 629 178 597Q153 571 145 525T137 333Q137 175 145 125T181 46Q209 16 250 16Q290 16 318 46Q347 76 354 130T362 333Q362 478 354 524T321 597Z"></path>
</defs>
<g stroke="currentColor" fill="currentColor" stroke-width="0" transform="matrix(1 0 0 -1 0 0)">
 <use xlink:href="#E1-MJSZ2-220F" x="0" y="0"></use>
 <use transform="scale(0.707)" xlink:href="#E1-MJMATHI-69" x="731" y="-1536"></use>
<g transform="translate(108,1151)">
 <use transform="scale(0.707)" xlink:href="#E1-MJMAIN-31"></use>
 <use transform="scale(0.707)" xlink:href="#E1-MJMAIN-30" x="500" y="0"></use>
 <use transform="scale(0.707)" xlink:href="#E1-MJMAIN-30" x="1001" y="0"></use>
</g>
 <use xlink:href="#E1-MJMATHI-69" x="1445" y="0"></use>
</g>
</svg>